PathFileType	4	(X/Y/Z)	S1_rest_med_right.trc
DataRate	CameraRate	NumFrames	NumMarkers	Units	OrigDataRate	OrigDataStartFrame	OrigNumFrames
250.00	250.00	8	18	mm	250.00	9242	24643
Frame#	Time	c7	r_should	l_should	clavicle	r_upa	r_elb_l	r_elb_m	r_low	r_wri_l	r_wri_m	r_met	l_upa	l_elb_l	l_elb_m	l_low	l_wri_l	l_wri_m	l_met
	X1	Y1	Z1	X2	Y2	Z2	X3	Y3	Z3	X4	Y4	Z4	X5	Y5	Z5	X6	Y6	Z6	X7	Y7	Z7	X8	Y8	Z8	X9	Y9	Z9	X10	Y10	Z10	X11	Y11	Z11	X12	Y12	Z12	X13	Y13	Z13	X14	Y14	Z14	X15	Y15	Z15	X16	Y16	Z16	X17	Y17	Z17	X18	Y18	Z18
9242	36.96400	410.03848	1416.69739	96.85025	481.69775	1350.77124	261.00400	451.25226	1372.88647	-104.01891	554.43896	1306.82922	65.77240	496.05475	1142.37231	306.61130	527.42847	1045.88940	317.13635	469.72223	1017.99133	231.61569	523.37268	907.58728	298.81638	612.11414	843.32544	317.45776	584.17712	826.03992	247.11252	599.03632	765.63025	340.59418	439.67523	1161.03369	-171.72716	446.91666	1080.87256	-190.00737	379.30566	1047.46582	-120.43388	436.45523	935.12976	-200.61964	525.83630	867.52374	-151.35304	473.48712	839.32556	-197.21931	568.41644	798.02954	-170.13229
9243	36.96800	410.02505	1416.69849	96.84382	481.64362	1350.77527	261.03732	451.29681	1372.88599	-104.01006	554.43774	1306.82886	65.81577	495.87988	1142.33594	306.62512	527.20294	1045.84167	317.14468	469.49323	1017.99548	231.58804	523.01709	907.54224	298.85779	611.66461	843.18195	317.54196	583.68628	825.87628	247.20361	598.54199	765.52643	340.75903	439.71085	1161.03394	-171.73128	446.94061	1080.86926	-190.01082	379.30331	1047.48096	-120.45936	436.44077	935.13934	-200.64485	525.78284	867.49304	-151.35464	473.43600	839.32245	-197.23798	568.35321	797.97345	-170.11617
9244	36.97200	410.01083	1416.70398	96.84711	481.58420	1350.77832	261.07330	451.33591	1372.88123	-104.00093	554.43713	1306.83398	65.86987	495.67093	1142.27039	306.55444	526.96448	1045.78650	317.15524	469.26270	1017.97937	231.56786	522.66119	907.49481	298.88806	611.22980	843.03485	317.62836	583.21399	825.71259	247.30540	598.06604	765.40717	340.91745	439.74713	1161.04321	-171.72919	446.96594	1080.87061	-190.01126	379.29044	1047.49658	-120.48792	436.42969	935.14319	-200.66302	525.73242	867.46326	-151.35318	473.38916	839.31616	-197.24535	568.28760	797.92316	-170.10872
9245	36.97600	409.99048	1416.70850	96.84583	481.52527	1350.78003	261.10495	451.38339	1372.87561	-103.98853	554.43567	1306.83923	65.92477	495.41776	1142.14978	306.40204	526.73413	1045.72046	317.16043	469.05646	1017.95972	231.53383	522.29852	907.44952	298.90979	610.82123	842.88147	317.70953	582.77045	825.54565	247.39186	597.47150	764.93604	341.04050	439.79108	1161.04382	-171.72940	446.99112	1080.87134	-190.01219	379.28455	1047.51245	-120.52316	436.42371	935.14795	-200.68475	525.68738	867.42737	-151.35280	473.34985	839.30945	-197.26402	568.22382	797.86914	-170.09801
9246	36.98000	409.96622	1416.71277	96.84373	481.47229	1350.77966	261.13968	451.43289	1372.86487	-103.97485	554.42743	1306.84521	65.98717	495.22507	1142.10059	306.36630	526.50812	1045.66736	317.15680	468.88773	1017.95709	231.48280	521.93475	907.40649	298.92801	610.40723	842.73657	317.78198	582.31201	825.38690	247.47968	596.78699	764.03522	341.09512	439.83618	1161.04651	-171.73151	447.02084	1080.87134	-190.01277	379.28485	1047.52747	-120.55670	436.41818	935.15063	-200.70953	525.63654	867.38904	-151.35233	473.31696	839.30334	-197.30205	568.15424	797.82379	-170.09750
9247	36.98400	409.94315	1416.71680	96.84458	481.41711	1350.78003	261.17685	451.48260	1372.85901	-103.96210	554.42010	1306.85144	66.04697	495.04263	1142.06384	306.34552	526.29315	1045.60583	317.14218	468.73123	1017.97198	231.40834	521.57965	907.36536	298.94507	609.97540	842.60809	317.85797	581.85590	825.22797	247.56911	596.38892	763.75153	341.15448	439.87946	1161.04858	-171.74017	447.05466	1080.87170	-190.02643	379.28528	1047.54419	-120.59544	436.41119	935.15125	-200.73477	525.58575	867.35144	-151.35783	473.28186	839.29517	-197.33543	568.08466	797.77960	-170.10017
9248	36.98800	409.91406	1416.71777	96.83469	481.35162	1350.78027	261.20956	451.53134	1372.85596	-103.94976	554.41290	1306.85706	66.10705	494.86383	1142.03235	306.33994	526.07452	1045.54932	317.11655	468.59778	1017.96863	231.31393	521.23267	907.31989	298.94772	609.54919	842.48987	317.92911	581.41992	825.06781	247.65132	595.98309	763.61609	341.26562	439.92737	1161.05237	-171.75659	447.08722	1080.87207	-190.04617	379.28845	1047.54858	-120.63160	436.40237	935.15088	-200.77129	525.54047	867.31335	-151.36877	473.24817	839.28333	-197.36790	568.02368	797.73584	-170.09720
9249	36.99200	409.88492	1416.71875	96.83788	481.27686	1350.78308	261.23517	451.57202	1372.85046	-103.94497	554.40393	1306.85803	66.16527	494.68939	1142.00586	306.31470	525.78119	1045.58948	317.01727	468.45755	1017.95886	231.21980	520.88788	907.27661	298.93213	609.13293	842.36981	317.99725	581.00238	824.91992	247.72974	595.58099	763.48779	341.37296	439.96603	1161.06201	-171.77785	447.12253	1080.86731	-190.05678	379.29459	1047.55518	-120.67032	436.39691	935.15247	-200.80878	525.49536	867.27594	-151.37975	473.21695	839.26941	-197.40300	567.96289	797.67499	-170.10442
